<svg width="19" height="17" viewBox="0 0 19 17" fill="none" xmlns="http://www.w3.org/2000/svg">
<path d="M16.4987 7.24272C16.2477 7.24272 16.0042 7.15318 15.8131 6.98528C14.367 5.71299 12.5125 5.01529 10.5831 5.01529H7.9119C5.9825 5.01529 4.12803 5.71672 2.68191 6.98528C2.41966 7.2166 2.06001 7.29869 1.71909 7.20541C1.38191 7.11214 1.11217 6.85842 1.00727 6.52263C0.879889 6.11968 1.00727 5.68314 1.3332 5.41451L2.07499 4.80635C3.58855 3.55645 5.50671 2.86993 7.47357 2.86993H11.0289C12.9958 2.86993 14.9102 3.55645 16.4275 4.80635L17.1655 5.41451C17.4915 5.68314 17.6226 6.11968 17.4915 6.52263C17.3866 6.85469 17.1168 7.11214 16.7797 7.20541C16.6823 7.23153 16.5923 7.24272 16.4987 7.24272ZM7.46983 3.42959C5.63409 3.42959 3.8433 4.07133 2.4309 5.23915L1.69286 5.84731C1.543 5.97043 1.48306 6.17191 1.543 6.35473C1.59171 6.51144 1.71159 6.62337 1.86894 6.66814C2.02629 6.71291 2.18739 6.6756 2.31102 6.5674C3.85829 5.20557 5.84763 4.45563 7.9119 4.45563H10.5831C12.6474 4.45563 14.6367 5.20557 16.184 6.5674C16.3076 6.6756 16.4687 6.71291 16.6261 6.66814C16.7834 6.62337 16.9033 6.51144 16.952 6.35473C17.0119 6.17191 16.952 5.97043 16.8021 5.84731L16.0641 5.23915C14.6517 4.07133 12.8609 3.42959 11.0252 3.42959H7.46983Z" fill="#474747"/>
<path d="M13.7488 16.9248H4.74619C3.18393 16.9248 1.77528 16.1935 0.879888 14.9212C-0.0117578 13.6527 -0.221557 12.0819 0.310434 10.623L1.67787 6.86961C1.73032 6.7241 1.89142 6.64948 2.03753 6.70171C2.18364 6.75395 2.25857 6.91438 2.20612 7.0599L0.838678 10.8133C0.370376 12.1005 0.55395 13.481 1.3407 14.6041C2.13119 15.7234 3.37125 16.3689 4.74619 16.3689H13.7488C15.1237 16.3689 16.3638 15.7271 17.1543 14.6041C17.9448 13.4848 18.1284 12.1005 17.6563 10.8133L16.2889 7.0599C16.2364 6.91438 16.3114 6.75395 16.4575 6.70171C16.6036 6.64948 16.7647 6.7241 16.8171 6.86961L18.1846 10.623C18.7166 12.0856 18.5105 13.6527 17.6151 14.9249C16.7197 16.1972 15.3111 16.9248 13.7488 16.9248Z" fill="#474747"/>
<path d="M6.82919 3.38483C6.72055 3.38483 6.61939 3.3214 6.57069 3.21693C6.47328 2.9968 6.42458 2.76174 6.42458 2.51922C6.42833 1.56034 7.21133 0.776825 8.1779 0.776825C9.14447 0.776825 9.92748 1.56034 9.92748 2.51922C9.92748 2.74682 9.88626 2.96695 9.8001 3.17216C9.74015 3.31394 9.57906 3.38483 9.43295 3.32513C9.29059 3.26543 9.2194 3.105 9.27935 2.95949C9.33554 2.81771 9.36551 2.66847 9.36551 2.51549C9.36551 1.86256 8.83352 1.33275 8.1779 1.33275C7.52228 1.33275 6.99029 1.86629 6.99029 2.51922C6.99029 2.68339 7.02401 2.84383 7.0877 2.99307C7.15138 3.13485 7.08395 3.29901 6.94158 3.36244C6.90412 3.37737 6.86666 3.38483 6.82919 3.38483Z" fill="#474747"/>
<path d="M11.6733 3.36992C11.6358 3.36992 11.5984 3.36246 11.5647 3.34753C11.4223 3.28784 11.3549 3.12367 11.4148 2.98189C11.4785 2.83638 11.5085 2.67967 11.5085 2.51924C11.5085 1.86631 10.9765 1.3365 10.3208 1.3365C10.1672 1.3365 10.0399 1.20964 10.0399 1.05667C10.0399 0.903696 10.1672 0.77684 10.3208 0.77684C11.2874 0.77684 12.0704 1.56036 12.0704 2.51924C12.0704 2.7543 12.0255 2.98189 11.9318 3.19829C11.8868 3.30649 11.7819 3.36992 11.6733 3.36992Z" fill="#474747"/>
<path d="M9.52661 15.1451H8.92718C8.6462 15.1451 8.40643 14.9212 8.40643 14.6526V14.1414C7.93438 14.0668 7.48107 13.8989 7.17012 13.675C6.99403 13.5519 6.93034 13.3243 7.00527 13.1116L7.2338 12.4774C7.28625 12.3356 7.39865 12.2236 7.54476 12.1751C7.68712 12.1266 7.84822 12.149 7.97185 12.2311C8.2828 12.4363 8.68367 12.5557 9.06955 12.5557C9.36551 12.5557 9.71018 12.44 9.71018 12.1154C9.71018 11.9886 9.71018 11.7498 8.94217 11.4401C8.0168 11.0782 7.06896 10.5447 7.06896 9.34327C7.06896 8.4329 7.61968 7.71654 8.51882 7.42925V6.8584C8.51882 6.5823 8.72113 6.37709 8.99087 6.37709H9.5828C9.85629 6.37709 10.0698 6.58976 10.0698 6.8584V7.33597C10.437 7.3994 10.7779 7.51879 11.0664 7.68669C11.2762 7.80981 11.3661 8.05979 11.2799 8.28366L11.0402 8.91047C10.9877 9.04479 10.8828 9.14926 10.7442 9.19776C10.6093 9.24627 10.4595 9.23507 10.3321 9.16045C10.186 9.07837 9.87877 8.90301 9.37675 8.90301C8.92718 8.90301 8.85975 9.10822 8.85975 9.22761C8.85975 9.35447 8.85975 9.49251 9.73641 9.85443C11.3324 10.5036 11.516 11.414 11.516 12.0446C11.516 12.9736 10.9315 13.7384 10.0099 14.0407V14.6451C10.0174 14.9249 9.79635 15.1451 9.52661 15.1451ZM7.50355 13.2721C7.79951 13.4698 8.23784 13.6116 8.69116 13.6526C8.82603 13.6638 8.93093 13.7758 8.93093 13.9138V14.6227H9.48914V13.8541C9.48914 13.7347 9.57157 13.6302 9.6877 13.6004C10.4819 13.4064 10.9952 12.7982 10.9952 12.052C10.9952 11.4998 10.8229 10.8655 9.54159 10.3432C8.72862 10.0074 8.339 9.75742 8.339 9.23134C8.339 9.00002 8.43266 8.79108 8.5975 8.6381C8.78482 8.47021 9.04707 8.38439 9.3805 8.38439C9.98742 8.38439 10.377 8.5896 10.5644 8.69407L10.7779 8.12695C10.4932 7.96652 10.1485 7.86205 9.77762 7.82474C9.64275 7.80981 9.54159 7.69788 9.54159 7.56356V6.89944H9.03957V7.63072C9.03957 7.75012 8.95715 7.85832 8.83727 7.88443C8.05801 8.06725 7.58971 8.61572 7.58971 9.347C7.58971 10.1828 8.20787 10.5969 9.13323 10.9588C9.90125 11.2685 10.2309 11.6155 10.2309 12.1192C10.2309 12.6863 9.75139 13.0818 9.0658 13.0818C8.59 13.0818 8.09923 12.94 7.7096 12.69L7.50355 13.2721Z" fill="#474747"/>
</svg>
