<svg width="15" height="18" viewBox="0 0 15 18" fill="none" xmlns="http://www.w3.org/2000/svg">
<path d="M7.46143 17.0816C7.38096 17.0816 7.3005 17.0614 7.22673 17.0212C4.02147 15.2979 1.80863 12.4145 0.836316 8.67946C0.098702 5.87653 0.313281 3.61004 0.326692 3.51616C0.353514 3.26135 0.568093 3.06019 0.82961 3.06019C4.74567 3.06019 7.07921 0.706526 7.10603 0.686409C7.19321 0.585825 7.32061 0.532181 7.46143 0.532181C7.59554 0.532181 7.72965 0.585825 7.82353 0.686409C7.84365 0.706526 10.204 3.06019 14.1 3.06019C14.3615 3.06019 14.5761 3.25465 14.6029 3.51616C14.6096 3.61004 14.8309 5.88323 14.1 8.68617C13.1276 12.4212 10.9148 15.3046 7.70954 17.0279C7.62236 17.0614 7.5419 17.0816 7.46143 17.0816ZM1.299 4.05932C1.27218 4.83046 1.299 6.52697 1.80863 8.46488C2.70047 11.8579 4.60485 14.3993 7.45472 16.0087C8.99701 15.1369 10.2778 13.9769 11.2568 12.5553C12.0883 11.355 12.7119 9.96693 13.1142 8.43136C13.6172 6.50015 13.6373 4.82375 13.6172 4.05932C10.4253 3.9185 8.2728 2.40304 7.45472 1.71907C6.64335 2.39633 4.49756 3.9185 1.299 4.05932Z" fill="#42474A"/>
<path d="M5.9728 11.5159C5.83868 11.5159 5.70457 11.4623 5.6107 11.3617L4.31652 10.0072C4.12206 9.80603 4.12876 9.49086 4.32993 9.2964C4.5311 9.10194 4.84626 9.10864 5.04072 9.30981L5.9728 10.2821L10.2308 5.82962C10.4253 5.62845 10.7405 5.62174 10.9416 5.81621C11.1428 6.01067 11.1495 6.32583 10.955 6.527L6.3349 11.3617C6.24102 11.4623 6.10691 11.5159 5.9728 11.5159Z" fill="#42474A"/>
</svg>
