<svg width="19" height="18" viewBox="0 0 19 18" fill="none" xmlns="http://www.w3.org/2000/svg">
<path d="M14.8657 13.7036C13.4794 15.3551 11.3998 16.3948 9.07562 16.3948C4.89615 16.3948 1.53218 13.0105 1.53218 8.85138C1.53218 4.67191 4.91654 1.28755 9.07562 1.28755C12.8066 1.28755 15.9055 3.99911 16.5171 7.54657" stroke="#42474A" stroke-width="1.22326" stroke-miterlimit="10"/>
<path d="M14.3764 5.46703L16.4764 7.19998L18.2093 5.10005L18.3724 6.73107L16.6395 8.831L14.5395 7.09804L14.3764 5.46703Z" fill="#42474A"/>
<path d="M5.26931 9.42857L5.42978 8.76298L7.35747 7.54567C7.78936 7.26689 8.03439 7.00687 8.09255 6.76562C8.13513 6.58899 8.11341 6.43333 8.02736 6.29862C7.94563 6.16495 7.8186 6.07735 7.64628 6.0358C7.30594 5.95375 7.01134 6.06962 6.76247 6.38341L6.11881 5.76326C6.33576 5.48736 6.59752 5.29975 6.90408 5.20045C7.21065 5.10114 7.52333 5.08991 7.84212 5.16677C8.25139 5.26544 8.57133 5.47933 8.80196 5.80844C9.03362 6.13325 9.09701 6.5132 8.9921 6.94831C8.87889 7.41789 8.51485 7.84067 7.89998 8.21664L6.80124 8.8885L8.50076 9.29825L8.29355 10.1577L5.26931 9.42857ZM12.4881 9.48008L12.2887 10.3072L11.804 10.1904L11.6186 10.9594L10.7204 10.7428L10.9058 9.97382L8.76686 9.45813L8.96628 8.63099L11.1777 6.06669L12.1341 6.29727L9.92912 8.86313L11.1052 9.14668L11.3638 8.07398L12.2621 8.29054L12.0034 9.36324L12.4881 9.48008Z" fill="#42474A"/>
</svg>
