<svg width="79" height="83" viewBox="0 0 79 83" fill="none" xmlns="http://www.w3.org/2000/svg">
<path d="M36.9851 1.43291C38.3873 0.076407 40.6127 0.0764091 42.0149 1.43292L48.7358 7.93472C49.5376 8.71043 50.6526 9.0727 51.7573 8.91646L61.0163 7.60683C62.948 7.33359 64.7484 8.64163 65.0854 10.5633L66.7011 19.7738C66.8939 20.8727 67.5829 21.8211 68.5685 22.344L76.8289 26.7268C78.5523 27.6412 79.24 29.7576 78.3832 31.5104L74.2765 39.9115C73.7865 40.9138 73.7865 42.0862 74.2765 43.0885L78.3832 51.4896C79.24 53.2424 78.5523 55.3588 76.8289 56.2732L68.5685 60.656C67.5829 61.1789 66.8939 62.1273 66.7011 63.2262L65.0854 72.4367C64.7484 74.3584 62.948 75.6664 61.0162 75.3932L51.7573 74.0835C50.6526 73.9273 49.5376 74.2896 48.7358 75.0653L42.0149 81.5671C40.6127 82.9236 38.3873 82.9236 36.9851 81.5671L30.2642 75.0653C29.4624 74.2896 28.3474 73.9273 27.2427 74.0835L17.9838 75.3932C16.052 75.6664 14.2516 74.3584 13.9146 72.4367L12.2989 63.2262C12.1061 62.1273 11.4171 61.1789 10.4315 60.656L2.17108 56.2732C0.447658 55.3588 -0.240015 53.2424 0.616791 51.4896L4.72351 43.0885C5.21347 42.0862 5.21347 40.9138 4.72351 39.9115L0.61679 31.5104C-0.240015 29.7576 0.44766 27.6412 2.17108 26.7268L10.4315 22.344C11.4171 21.8211 12.1061 20.8727 12.2989 19.7738L13.9146 10.5633C14.2516 8.64163 16.052 7.33359 17.9838 7.60683L27.2427 8.91646C28.3474 9.0727 29.4624 8.71043 30.2642 7.93472L36.9851 1.43291Z" fill="#EF1B3B"/>
</svg>
